<svg xmlns="http://www.w3.org/2000/svg" xmlns:xlink="http://www.w3.org/1999/xlink" width="500" zoomAndPan="magnify" viewBox="0 0 375 374.999991" height="500" preserveAspectRatio="xMidYMid meet" version="1.0"><defs><g/><clipPath id="9f23084f1c"><path d="M 21.539062 137.300781 L 37.941406 137.300781 L 37.941406 216.675781 L 21.539062 216.675781 Z M 21.539062 137.300781 " clip-rule="nonzero"/></clipPath><clipPath id="572191e647"><path d="M 118.535156 137.300781 L 134.917969 137.300781 L 134.917969 216.675781 L 118.535156 216.675781 Z M 118.535156 137.300781 " clip-rule="nonzero"/></clipPath><clipPath id="204e51c66e"><path d="M 65 136 L 70 136 L 70 141 L 65 141 Z M 65 136 " clip-rule="nonzero"/></clipPath><clipPath id="939c552bbb"><path d="M 71.585938 140.269531 L 65.589844 140.121094 L 65.980469 124.375 L 71.976562 124.523438 Z M 71.585938 140.269531 " clip-rule="nonzero"/></clipPath><clipPath id="b191e4e0a6"><path d="M 71.585938 140.269531 L 65.589844 140.121094 L 65.980469 124.375 L 71.976562 124.523438 Z M 71.585938 140.269531 " clip-rule="nonzero"/></clipPath><clipPath id="414609421c"><path d="M 65 124 L 72 124 L 72 135 L 65 135 Z M 65 124 " clip-rule="nonzero"/></clipPath><clipPath id="e23717f64d"><path d="M 71.585938 140.269531 L 65.589844 140.121094 L 65.980469 124.375 L 71.976562 124.523438 Z M 71.585938 140.269531 " clip-rule="nonzero"/></clipPath><clipPath id="7716225bca"><path d="M 71.585938 140.269531 L 65.589844 140.121094 L 65.980469 124.375 L 71.976562 124.523438 Z M 71.585938 140.269531 " clip-rule="nonzero"/></clipPath><clipPath id="9cb59752e9"><path d="M 75 136 L 79 136 L 79 140 L 75 140 Z M 75 136 " clip-rule="nonzero"/></clipPath><clipPath id="ea306be6bb"><path d="M 81.292969 140.105469 L 75.292969 139.957031 L 75.683594 124.210938 L 81.683594 124.359375 Z M 81.292969 140.105469 " clip-rule="nonzero"/></clipPath><clipPath id="171ceb2ce1"><path d="M 81.292969 140.105469 L 75.292969 139.957031 L 75.683594 124.210938 L 81.683594 124.359375 Z M 81.292969 140.105469 " clip-rule="nonzero"/></clipPath><clipPath id="fa138a2473"><path d="M 75 124 L 82 124 L 82 135 L 75 135 Z M 75 124 " clip-rule="nonzero"/></clipPath><clipPath id="f069f48184"><path d="M 81.292969 140.105469 L 75.292969 139.957031 L 75.683594 124.210938 L 81.683594 124.359375 Z M 81.292969 140.105469 " clip-rule="nonzero"/></clipPath><clipPath id="df74aed698"><path d="M 81.292969 140.105469 L 75.292969 139.957031 L 75.683594 124.210938 L 81.683594 124.359375 Z M 81.292969 140.105469 " clip-rule="nonzero"/></clipPath><clipPath id="db0bdf820b"><path d="M 84 136 L 89 136 L 89 141 L 84 141 Z M 84 136 " clip-rule="nonzero"/></clipPath><clipPath id="cbdc3e63aa"><path d="M 90.996094 140.269531 L 84.996094 140.121094 L 85.386719 124.375 L 91.386719 124.523438 Z M 90.996094 140.269531 " clip-rule="nonzero"/></clipPath><clipPath id="245713daab"><path d="M 90.996094 140.269531 L 84.996094 140.121094 L 85.386719 124.375 L 91.386719 124.523438 Z M 90.996094 140.269531 " clip-rule="nonzero"/></clipPath><clipPath id="1afff2b76f"><path d="M 84 124 L 92 124 L 92 135 L 84 135 Z M 84 124 " clip-rule="nonzero"/></clipPath><clipPath id="6881c5f455"><path d="M 90.996094 140.269531 L 84.996094 140.121094 L 85.386719 124.375 L 91.386719 124.523438 Z M 90.996094 140.269531 " clip-rule="nonzero"/></clipPath><clipPath id="1195f5eed7"><path d="M 90.996094 140.269531 L 84.996094 140.121094 L 85.386719 124.375 L 91.386719 124.523438 Z M 90.996094 140.269531 " clip-rule="nonzero"/></clipPath><clipPath id="f5a44e2b93"><path d="M 40.496094 161.496094 L 116.246094 161.496094 L 116.246094 192.246094 L 40.496094 192.246094 Z M 40.496094 161.496094 " clip-rule="nonzero"/></clipPath></defs><rect x="-37.5" width="450" fill="#ffffff" y="-37.499999" height="449.999989" fill-opacity="1"/><rect x="-37.5" width="450" fill="#ffffff" y="-37.499999" height="449.999989" fill-opacity="1"/><g clip-path="url(#9f23084f1c)"><path fill="#ffffff" d="M 21.539062 176.066406 L 22.417969 176.066406 C 27.6875 176.066406 28.46875 173.234375 28.46875 167.667969 C 28.46875 161.320312 28.175781 155.855469 28.175781 149.214844 C 28.175781 138.574219 32.667969 137.304688 37.550781 137.304688 L 37.9375 137.304688 L 37.9375 138.964844 L 37.746094 138.964844 C 33.449219 138.964844 29.835938 139.550781 29.835938 149.019531 C 29.835938 155.269531 30.128906 161.320312 30.128906 167.375 C 30.128906 173.820312 29.15625 176.160156 25.738281 176.945312 C 28.566406 178.113281 30.128906 179.285156 30.128906 186.605469 C 30.128906 191.585938 29.835938 200.664062 29.835938 207.011719 C 29.835938 214.824219 34.226562 215.015625 37.550781 215.015625 L 37.9375 215.015625 L 37.9375 216.675781 L 37.550781 216.675781 C 32.863281 216.675781 28.175781 215.992188 28.175781 206.429688 C 28.175781 199.886719 28.46875 191.292969 28.46875 186.21875 C 28.46875 181.335938 27.589844 177.820312 22.417969 177.820312 L 21.539062 177.820312 L 21.539062 176.066406 " fill-opacity="1" fill-rule="nonzero"/></g><g clip-path="url(#572191e647)"><path fill="#ffffff" d="M 134.917969 176.066406 L 134.039062 176.066406 C 128.769531 176.066406 127.988281 173.234375 127.988281 167.667969 C 127.988281 161.320312 128.28125 155.855469 128.28125 149.214844 C 128.28125 138.574219 123.789062 137.304688 118.90625 137.304688 L 118.519531 137.304688 L 118.519531 138.964844 L 118.710938 138.964844 C 123.007812 138.964844 126.621094 139.550781 126.621094 149.019531 C 126.621094 155.269531 126.328125 161.320312 126.328125 167.375 C 126.328125 173.820312 127.300781 176.160156 130.71875 176.945312 C 127.890625 178.113281 126.328125 179.285156 126.328125 186.605469 C 126.328125 191.585938 126.621094 200.664062 126.621094 207.011719 C 126.621094 214.824219 122.230469 215.015625 118.90625 215.015625 L 118.519531 215.015625 L 118.519531 216.675781 L 118.90625 216.675781 C 123.59375 216.675781 128.28125 215.992188 128.28125 206.429688 C 128.28125 199.886719 127.988281 191.292969 127.988281 186.21875 C 127.988281 181.335938 128.867188 177.820312 134.039062 177.820312 L 134.917969 177.820312 L 134.917969 176.066406 " fill-opacity="1" fill-rule="nonzero"/></g><g clip-path="url(#204e51c66e)"><g clip-path="url(#939c552bbb)"><g clip-path="url(#b191e4e0a6)"><path fill="#9d9d9d" d="M 65.363281 138.15625 C 65.371094 137.894531 65.425781 137.648438 65.53125 137.410156 C 65.636719 137.171875 65.78125 136.964844 65.972656 136.785156 C 66.160156 136.605469 66.375 136.46875 66.617188 136.375 C 66.859375 136.28125 67.109375 136.238281 67.371094 136.246094 C 67.628906 136.25 67.878906 136.308594 68.117188 136.414062 C 68.355469 136.519531 68.5625 136.664062 68.742188 136.851562 C 68.921875 137.042969 69.054688 137.257812 69.148438 137.5 C 69.242188 137.742188 69.285156 137.992188 69.28125 138.253906 C 69.273438 138.511719 69.21875 138.761719 69.113281 139 C 69.007812 139.234375 68.859375 139.445312 68.671875 139.625 C 68.484375 139.800781 68.269531 139.9375 68.027344 140.03125 C 67.785156 140.125 67.53125 140.167969 67.273438 140.164062 C 67.011719 140.15625 66.765625 140.101562 66.527344 139.996094 C 66.289062 139.890625 66.082031 139.742188 65.902344 139.554688 C 65.722656 139.367188 65.585938 139.152344 65.492188 138.910156 C 65.398438 138.667969 65.355469 138.414062 65.363281 138.15625 Z M 65.363281 138.15625 " fill-opacity="1" fill-rule="nonzero"/></g></g></g><g clip-path="url(#414609421c)"><g clip-path="url(#e23717f64d)"><g clip-path="url(#7716225bca)"><path fill="#9d9d9d" d="M 65.492188 132.699219 C 65.492188 132.859375 65.507812 133.015625 65.542969 133.167969 C 65.730469 134.042969 66.515625 134.6875 67.410156 134.710938 C 68.488281 134.738281 69.390625 133.882812 69.414062 132.800781 C 69.425781 132.320312 69.164062 131.925781 68.925781 131.53125 C 68.632812 131.054688 68.472656 130.625 68.546875 130.054688 C 68.664062 129.152344 69.140625 128.300781 69.625 127.546875 C 70.300781 126.488281 71.101562 125.484375 71.976562 124.582031 C 69.730469 125.859375 67.628906 127.601562 66.394531 129.914062 C 65.976562 130.695312 65.480469 131.742188 65.492188 132.699219 Z M 65.492188 132.699219 " fill-opacity="1" fill-rule="nonzero"/></g></g></g><g clip-path="url(#9cb59752e9)"><g clip-path="url(#ea306be6bb)"><g clip-path="url(#171ceb2ce1)"><path fill="#9d9d9d" d="M 75.066406 137.992188 C 75.074219 137.730469 75.128906 137.484375 75.234375 137.246094 C 75.339844 137.007812 75.488281 136.800781 75.675781 136.621094 C 75.863281 136.441406 76.078125 136.304688 76.320312 136.210938 C 76.5625 136.117188 76.816406 136.074219 77.074219 136.082031 C 77.335938 136.085938 77.582031 136.144531 77.820312 136.25 C 78.058594 136.355469 78.265625 136.5 78.445312 136.6875 C 78.625 136.878906 78.761719 137.09375 78.855469 137.335938 C 78.949219 137.578125 78.992188 137.828125 78.984375 138.089844 C 78.976562 138.347656 78.921875 138.597656 78.816406 138.835938 C 78.710938 139.070312 78.566406 139.28125 78.375 139.460938 C 78.1875 139.636719 77.972656 139.773438 77.730469 139.867188 C 77.488281 139.960938 77.238281 140.003906 76.976562 140 C 76.71875 139.992188 76.46875 139.9375 76.230469 139.832031 C 75.992188 139.726562 75.785156 139.578125 75.605469 139.390625 C 75.425781 139.203125 75.292969 138.988281 75.199219 138.746094 C 75.105469 138.503906 75.0625 138.25 75.066406 137.992188 Z M 75.066406 137.992188 " fill-opacity="1" fill-rule="nonzero"/></g></g></g><g clip-path="url(#fa138a2473)"><g clip-path="url(#f069f48184)"><g clip-path="url(#df74aed698)"><path fill="#9d9d9d" d="M 75.195312 132.535156 C 75.199219 132.695312 75.214844 132.851562 75.246094 133.003906 C 75.4375 133.878906 76.222656 134.523438 77.113281 134.546875 C 78.195312 134.574219 79.09375 133.71875 79.121094 132.636719 C 79.132812 132.15625 78.867188 131.761719 78.628906 131.367188 C 78.335938 130.890625 78.179688 130.460938 78.25 129.890625 C 78.367188 128.988281 78.847656 128.136719 79.328125 127.382812 C 80.003906 126.324219 80.804688 125.320312 81.679688 124.417969 C 79.433594 125.695312 77.335938 127.4375 76.097656 129.75 C 75.679688 130.53125 75.183594 131.578125 75.195312 132.535156 Z M 75.195312 132.535156 " fill-opacity="1" fill-rule="nonzero"/></g></g></g><g clip-path="url(#db0bdf820b)"><g clip-path="url(#cbdc3e63aa)"><g clip-path="url(#245713daab)"><path fill="#9d9d9d" d="M 84.769531 138.15625 C 84.777344 137.894531 84.832031 137.648438 84.9375 137.410156 C 85.042969 137.171875 85.191406 136.964844 85.378906 136.785156 C 85.566406 136.605469 85.78125 136.46875 86.027344 136.375 C 86.269531 136.28125 86.519531 136.238281 86.777344 136.246094 C 87.039062 136.25 87.285156 136.308594 87.523438 136.414062 C 87.761719 136.519531 87.96875 136.664062 88.148438 136.851562 C 88.328125 137.042969 88.464844 137.257812 88.558594 137.5 C 88.652344 137.742188 88.695312 137.992188 88.6875 138.253906 C 88.683594 138.511719 88.625 138.761719 88.519531 139 C 88.414062 139.234375 88.269531 139.445312 88.082031 139.625 C 87.890625 139.800781 87.675781 139.9375 87.433594 140.03125 C 87.191406 140.125 86.941406 140.167969 86.679688 140.164062 C 86.421875 140.15625 86.171875 140.101562 85.9375 139.996094 C 85.699219 139.890625 85.488281 139.742188 85.3125 139.554688 C 85.132812 139.367188 84.996094 139.152344 84.902344 138.910156 C 84.808594 138.667969 84.765625 138.414062 84.769531 138.15625 Z M 84.769531 138.15625 " fill-opacity="1" fill-rule="nonzero"/></g></g></g><g clip-path="url(#1afff2b76f)"><g clip-path="url(#6881c5f455)"><g clip-path="url(#1195f5eed7)"><path fill="#9d9d9d" d="M 84.898438 132.699219 C 84.902344 132.859375 84.917969 133.015625 84.949219 133.167969 C 85.140625 134.042969 85.925781 134.6875 86.816406 134.710938 C 87.898438 134.738281 88.796875 133.882812 88.824219 132.800781 C 88.835938 132.320312 88.574219 131.925781 88.332031 131.53125 C 88.042969 131.054688 87.882812 130.625 87.957031 130.054688 C 88.070312 129.152344 88.550781 128.300781 89.03125 127.546875 C 89.707031 126.488281 90.511719 125.484375 91.386719 124.582031 C 89.136719 125.859375 87.039062 127.601562 85.804688 129.914062 C 85.386719 130.695312 84.890625 131.742188 84.898438 132.699219 Z M 84.898438 132.699219 " fill-opacity="1" fill-rule="nonzero"/></g></g></g><g clip-path="url(#f5a44e2b93)"><path fill="#9d9d9d" d="M 116.152344 172.75 L 112.71875 172.75 C 110.863281 166.289062 104.921875 161.539062 97.859375 161.539062 C 89.675781 161.539062 82.957031 167.953125 82.4375 176.007812 C 78.488281 174.410156 75.59375 175.210938 74.167969 175.878906 C 73.605469 167.867188 66.910156 161.515625 58.769531 161.515625 C 51.726562 161.515625 45.765625 166.269531 43.910156 172.726562 L 40.496094 172.726562 L 40.496094 180.542969 L 43.738281 180.542969 C 45.355469 187.347656 51.46875 192.421875 58.769531 192.421875 C 67.171875 192.421875 74.015625 185.683594 74.210938 177.328125 C 75.03125 176.828125 77.992188 175.425781 82.4375 177.390625 C 82.65625 185.707031 89.5 192.421875 97.882812 192.421875 C 105.183594 192.421875 111.292969 187.347656 112.914062 180.542969 L 116.152344 180.542969 Z M 58.769531 191.148438 C 50.972656 191.148438 44.621094 184.800781 44.621094 177.003906 C 44.621094 169.207031 50.972656 162.855469 58.769531 162.855469 C 66.566406 162.855469 72.914062 169.207031 72.914062 177.003906 C 72.914062 184.800781 66.585938 191.148438 58.769531 191.148438 Z M 97.882812 191.148438 C 90.085938 191.148438 83.734375 184.800781 83.734375 177.003906 C 83.734375 169.207031 90.085938 162.855469 97.882812 162.855469 C 105.679688 162.855469 112.027344 169.207031 112.027344 177.003906 C 112.027344 184.800781 105.679688 191.148438 97.882812 191.148438 Z M 97.882812 191.148438 " fill-opacity="1" fill-rule="nonzero"/></g><g fill="#ffffff" fill-opacity="1"><g transform="translate(151.145403, 173.8216)"><g><path d="M 10.890625 0 L 2.71875 0 L 2.71875 -31.78125 L 10.890625 -31.78125 L 10.890625 -19.296875 L 14.984375 -19.296875 L 22.0625 -31.78125 L 30.6875 -31.78125 L 21.796875 -16.125 L 30.65625 0 L 22.015625 0 L 14.984375 -12.9375 L 10.890625 -12.9375 Z M 10.890625 0 "/></g></g></g><g fill="#ffffff" fill-opacity="1"><g transform="translate(190.915664, 173.8216)"><g><path d="M 23.15625 -23.15625 C 23.15625 -24.96875 22.25 -25.875 20.4375 -25.875 L 12.71875 -25.875 C 10.894531 -25.875 9.984375 -24.96875 9.984375 -23.15625 L 9.984375 -8.625 C 9.984375 -6.8125 10.894531 -5.90625 12.71875 -5.90625 L 20.4375 -5.90625 C 22.25 -5.90625 23.15625 -6.8125 23.15625 -8.625 Z M 31.328125 -8.625 C 31.328125 -5.445312 30.609375 -3.140625 29.171875 -1.703125 C 27.734375 -0.265625 25.425781 0.453125 22.25 0.453125 L 10.890625 0.453125 C 7.710938 0.453125 5.40625 -0.265625 3.96875 -1.703125 C 2.53125 -3.140625 1.8125 -5.445312 1.8125 -8.625 L 1.8125 -23.15625 C 1.8125 -26.332031 2.53125 -28.640625 3.96875 -30.078125 C 5.40625 -31.515625 7.710938 -32.234375 10.890625 -32.234375 L 22.25 -32.234375 C 25.425781 -32.234375 27.734375 -31.515625 29.171875 -30.078125 C 30.609375 -28.640625 31.328125 -26.332031 31.328125 -23.15625 Z M 31.328125 -8.625 "/></g></g></g><g fill="#ffffff" fill-opacity="1"><g transform="translate(233.13745, 173.8216)"><g><path d="M 20.4375 -31.78125 C 23.851562 -31.78125 26.445312 -30.894531 28.21875 -29.125 C 29.988281 -27.351562 30.875 -24.757812 30.875 -21.34375 L 30.875 -10.4375 C 30.875 -7.019531 29.988281 -4.425781 28.21875 -2.65625 C 26.445312 -0.882812 23.851562 0 20.4375 0 L 2.71875 0 L 2.71875 -31.78125 Z M 22.703125 -21.34375 C 22.703125 -24.0625 21.335938 -25.421875 18.609375 -25.421875 L 10.890625 -25.421875 L 10.890625 -6.359375 L 18.609375 -6.359375 C 21.335938 -6.359375 22.703125 -7.71875 22.703125 -10.4375 Z M 22.703125 -21.34375 "/></g></g></g><g fill="#ffffff" fill-opacity="1"><g transform="translate(274.905247, 173.8216)"><g><path d="M -0.90625 -31.78125 L 7.71875 -31.78125 L 15.21875 -16.34375 L 22.703125 -31.78125 L 31.328125 -31.78125 L 19.296875 -8.40625 L 19.296875 0 L 11.125 0 L 11.125 -8.40625 Z M -0.90625 -31.78125 "/></g></g></g><g fill="#9d9d9d" fill-opacity="1"><g transform="translate(148.291351, 212.190743)"><g><path d="M 0.796875 -2.984375 C 4.566406 -2.773438 7.113281 -2.671875 8.4375 -2.671875 C 8.757812 -2.671875 9.007812 -2.765625 9.1875 -2.953125 C 9.375 -3.140625 9.46875 -3.390625 9.46875 -3.703125 L 9.46875 -5.5625 L 4.734375 -5.5625 C 3.296875 -5.5625 2.25 -5.882812 1.59375 -6.53125 C 0.945312 -7.1875 0.625 -8.234375 0.625 -9.671875 L 0.625 -10.296875 C 0.625 -11.734375 0.945312 -12.78125 1.59375 -13.4375 C 2.25 -14.09375 3.296875 -14.421875 4.734375 -14.421875 L 11.96875 -14.421875 L 11.96875 -11.53125 L 5.5625 -11.53125 C 4.738281 -11.53125 4.328125 -11.117188 4.328125 -10.296875 L 4.328125 -9.890625 C 4.328125 -9.066406 4.738281 -8.65625 5.5625 -8.65625 L 9.265625 -8.65625 C 10.609375 -8.65625 11.597656 -8.335938 12.234375 -7.703125 C 12.867188 -7.066406 13.1875 -6.078125 13.1875 -4.734375 L 13.1875 -3.703125 C 13.1875 -2.359375 12.867188 -1.367188 12.234375 -0.734375 C 11.597656 -0.109375 10.609375 0.203125 9.265625 0.203125 C 8.566406 0.203125 7.828125 0.191406 7.046875 0.171875 L 5.140625 0.078125 C 3.742188 0.015625 2.296875 -0.078125 0.796875 -0.203125 Z M 0.796875 -2.984375 "/></g></g></g><g fill="#9d9d9d" fill-opacity="1"><g transform="translate(173.369975, 212.190743)"><g><path d="M 10.5 -10.5 C 10.5 -11.320312 10.085938 -11.734375 9.265625 -11.734375 L 5.765625 -11.734375 C 4.941406 -11.734375 4.53125 -11.320312 4.53125 -10.5 L 4.53125 -3.90625 C 4.53125 -3.082031 4.941406 -2.671875 5.765625 -2.671875 L 9.265625 -2.671875 C 10.085938 -2.671875 10.5 -3.082031 10.5 -3.90625 Z M 14.203125 -3.90625 C 14.203125 -2.46875 13.875 -1.421875 13.21875 -0.765625 C 12.570312 -0.117188 11.53125 0.203125 10.09375 0.203125 L 4.9375 0.203125 C 3.5 0.203125 2.453125 -0.117188 1.796875 -0.765625 C 1.148438 -1.421875 0.828125 -2.46875 0.828125 -3.90625 L 0.828125 -10.5 C 0.828125 -11.945312 1.148438 -12.992188 1.796875 -13.640625 C 2.453125 -14.296875 3.5 -14.625 4.9375 -14.625 L 10.09375 -14.625 C 11.53125 -14.625 12.570312 -14.296875 13.21875 -13.640625 C 13.875 -12.992188 14.203125 -11.945312 14.203125 -10.5 Z M 14.203125 -3.90625 "/></g></g></g><g fill="#9d9d9d" fill-opacity="1"><g transform="translate(199.683808, 212.190743)"><g><path d="M 4.9375 -2.890625 L 12.453125 -2.890625 L 12.453125 0 L 1.234375 0 L 1.234375 -14.421875 L 4.9375 -14.421875 Z M 4.9375 -2.890625 "/></g></g></g><g fill="#9d9d9d" fill-opacity="1"><g transform="translate(223.63016, 212.190743)"><g><path d="M 10.5 -14.421875 L 14.203125 -14.421875 L 14.203125 -3.90625 C 14.203125 -2.46875 13.875 -1.421875 13.21875 -0.765625 C 12.570312 -0.117188 11.53125 0.203125 10.09375 0.203125 L 5.359375 0.203125 C 3.910156 0.203125 2.859375 -0.117188 2.203125 -0.765625 C 1.554688 -1.421875 1.234375 -2.46875 1.234375 -3.90625 L 1.234375 -14.421875 L 4.9375 -14.421875 L 4.9375 -3.90625 C 4.9375 -3.082031 5.347656 -2.671875 6.171875 -2.671875 L 9.265625 -2.671875 C 10.085938 -2.671875 10.5 -3.082031 10.5 -3.90625 Z M 10.5 -14.421875 "/></g></g></g><g fill="#9d9d9d" fill-opacity="1"><g transform="translate(250.355741, 212.190743)"><g><path d="M 8.234375 0 L 4.53125 0 L 4.53125 -11.53125 L 0.203125 -11.53125 L 0.203125 -14.421875 L 12.5625 -14.421875 L 12.5625 -11.53125 L 8.234375 -11.53125 Z M 8.234375 0 "/></g></g></g><g fill="#9d9d9d" fill-opacity="1"><g transform="translate(274.40503, 212.190743)"><g><path d="M 8.03125 0 L 0.625 0 L 0.625 -2.890625 L 2.46875 -2.890625 L 2.46875 -11.53125 L 0.625 -11.53125 L 0.625 -14.421875 L 8.03125 -14.421875 L 8.03125 -11.53125 L 6.171875 -11.53125 L 6.171875 -2.890625 L 8.03125 -2.890625 Z M 8.03125 0 "/></g></g></g><g fill="#9d9d9d" fill-opacity="1"><g transform="translate(294.336942, 212.190743)"><g><path d="M 10.5 -10.5 C 10.5 -11.320312 10.085938 -11.734375 9.265625 -11.734375 L 5.765625 -11.734375 C 4.941406 -11.734375 4.53125 -11.320312 4.53125 -10.5 L 4.53125 -3.90625 C 4.53125 -3.082031 4.941406 -2.671875 5.765625 -2.671875 L 9.265625 -2.671875 C 10.085938 -2.671875 10.5 -3.082031 10.5 -3.90625 Z M 14.203125 -3.90625 C 14.203125 -2.46875 13.875 -1.421875 13.21875 -0.765625 C 12.570312 -0.117188 11.53125 0.203125 10.09375 0.203125 L 4.9375 0.203125 C 3.5 0.203125 2.453125 -0.117188 1.796875 -0.765625 C 1.148438 -1.421875 0.828125 -2.46875 0.828125 -3.90625 L 0.828125 -10.5 C 0.828125 -11.945312 1.148438 -12.992188 1.796875 -13.640625 C 2.453125 -14.296875 3.5 -14.625 4.9375 -14.625 L 10.09375 -14.625 C 11.53125 -14.625 12.570312 -14.296875 13.21875 -13.640625 C 13.875 -12.992188 14.203125 -11.945312 14.203125 -10.5 Z M 14.203125 -3.90625 "/></g></g></g><g fill="#9d9d9d" fill-opacity="1"><g transform="translate(320.650774, 212.190743)"><g><path d="M 13.796875 0 L 9.890625 0 L 4.9375 -8.65625 L 4.9375 0 L 1.234375 0 L 1.234375 -14.421875 L 5.140625 -14.421875 L 10.09375 -5.765625 L 10.09375 -14.421875 L 13.796875 -14.421875 Z M 13.796875 0 "/></g></g></g><g fill="#9d9d9d" fill-opacity="1"><g transform="translate(346.964607, 212.190743)"><g><path d="M 0.796875 -2.984375 C 4.566406 -2.773438 7.113281 -2.671875 8.4375 -2.671875 C 8.757812 -2.671875 9.007812 -2.765625 9.1875 -2.953125 C 9.375 -3.140625 9.46875 -3.390625 9.46875 -3.703125 L 9.46875 -5.5625 L 4.734375 -5.5625 C 3.296875 -5.5625 2.25 -5.882812 1.59375 -6.53125 C 0.945312 -7.1875 0.625 -8.234375 0.625 -9.671875 L 0.625 -10.296875 C 0.625 -11.734375 0.945312 -12.78125 1.59375 -13.4375 C 2.25 -14.09375 3.296875 -14.421875 4.734375 -14.421875 L 11.96875 -14.421875 L 11.96875 -11.53125 L 5.5625 -11.53125 C 4.738281 -11.53125 4.328125 -11.117188 4.328125 -10.296875 L 4.328125 -9.890625 C 4.328125 -9.066406 4.738281 -8.65625 5.5625 -8.65625 L 9.265625 -8.65625 C 10.609375 -8.65625 11.597656 -8.335938 12.234375 -7.703125 C 12.867188 -7.066406 13.1875 -6.078125 13.1875 -4.734375 L 13.1875 -3.703125 C 13.1875 -2.359375 12.867188 -1.367188 12.234375 -0.734375 C 11.597656 -0.109375 10.609375 0.203125 9.265625 0.203125 C 8.566406 0.203125 7.828125 0.191406 7.046875 0.171875 L 5.140625 0.078125 C 3.742188 0.015625 2.296875 -0.078125 0.796875 -0.203125 Z M 0.796875 -2.984375 "/></g></g></g></svg>